<svg viewBox="44 205 430 78" xmlns="http://www.w3.org/2000/svg" role="img" aria-label="MD Supply">
  <path d="M57.7218 210.161C58.1864 210.139 59.8363 210.087 60.1128 210.386C69.1004 220.106 77.8177 230.384 86.4382 240.423C94.9003 231.603 104.913 219.61 113.265 210.231C116.937 210.108 121.223 210.208 124.942 210.218L124.979 277.585L110.576 277.592C110.893 267.216 110.635 255.558 110.637 245.083L110.605 235.79C102.449 244.788 94.5456 254.2 86.388 263.273C78.992 255.647 69.6514 243.937 62.3044 235.668L62.3535 277.589L47.9912 277.604L48.04 210.179C51.2673 210.194 54.4946 210.188 57.7218 210.161Z" fill="#FFFFFF"/>
  <path d="M131.927 210.153L153.328 210.159C166.786 210.132 177.465 209.359 187.966 219.21C202.808 233.132 201.649 260.589 184.496 272.131C178.314 276.291 172.506 277.374 165.251 277.575L150.408 277.577L150.399 262.605C155.292 262.603 160.339 262.573 165.227 262.647C181.848 262.896 189.384 241.726 178.087 230.492C175.932 228.35 173.24 226.825 170.293 226.076C165.657 224.892 157.638 225.251 152.661 225.264L131.518 225.285C131.497 223.124 131.109 211.199 131.927 210.153Z" fill="#FFFFFF"/>
  <path d="M131.438 233.385L145.778 233.37L145.785 253.839C143.482 256.15 141.163 258.666 138.906 261.039C136.454 263.667 133.964 266.259 131.436 268.814C131.311 257.065 131.424 245.147 131.438 233.385Z" fill="#FFFFFF"/>
  <path d="M334.555 238.724C340.59 238.733 352.289 237.128 353.458 245.2C353.766 247.379 353.184 249.589 351.845 251.338C350.035 253.706 348.422 254.149 345.606 254.562L339.254 254.605V262.097L334.542 262.102L334.555 238.724Z" fill="#FFFFFF"/>
  <path d="M339.261 242.926C343.372 242.843 352.423 242.675 347.46 249.522C345.136 250.701 341.923 250.334 339.274 250.281L339.261 242.926Z" fill="#1A1A1A"/>
  <path d="M372.596 238.737C373.501 238.747 375.555 238.891 376.654 238.784C385.364 237.938 395.617 240.495 389.903 251.369C388.807 253.452 386.182 254.204 383.644 254.547L377.298 254.618L377.302 262.074L372.586 262.118L372.596 238.737Z" fill="#FFFFFF"/>
  <path d="M377.298 242.911C381.56 242.74 389.699 242.383 385.788 249.286C383.2 250.84 380.388 250.367 377.271 250.311L377.298 242.911Z" fill="#1A1A1A"/>
  <path d="M309.152 238.764L313.928 238.734L313.898 242.923C313.961 247.907 314.85 255.928 311.236 259.713C307.963 263.318 299.503 263.327 296.17 259.884C292.069 255.646 293.385 244.632 293.465 238.801L298.07 238.751C298.104 241.924 297.052 255.22 299.794 256.757C311.73 263.451 309.209 245.102 309.152 238.764Z" fill="#FFFFFF"/>
  <path d="M261.379 238.763C266.419 238.122 268.82 238.839 273.088 241.193C272.43 242.315 271.452 243.732 270.724 244.854C268.312 243.378 263.58 241.029 260.918 243.926C260.4 244.488 260.557 244.913 260.688 245.581C262.778 248.198 267.634 248.05 270.26 249.841C277.397 254.713 273.432 260.647 266.516 262.382C261.068 262.59 259.088 261.871 254.669 259.094L257.445 255.421C260.551 257.717 265.637 260.421 269.02 256.178C269.318 255.806 269.087 255.462 268.95 255.019C265.684 251.484 255.895 252.515 255.554 245.598C255.367 241.823 258.346 239.999 261.379 238.763Z" fill="#FFFFFF"/>
  <path d="M458.059 238.74L463.216 238.764L457.401 247.803C456.416 249.142 455 251.517 454.058 252.982L454.015 262.104C452.441 262.141 450.778 262.116 449.195 262.12C449.559 251.278 448.951 252.118 442.866 242.96C442.315 242.129 441.026 239.845 440.755 238.821L445.832 238.716L451.797 248.753C453.784 245.354 455.875 242.015 458.059 238.74Z" fill="#FFFFFF"/>
  <path d="M411.324 238.787L415.943 238.827L415.95 257.894L427.706 257.854C427.743 259.223 427.676 260.723 427.643 262.102L411.258 262.166C411.228 254.373 411.251 246.58 411.324 238.787Z" fill="#FFFFFF"/>
  <path d="M145.351 262.244C146.162 263 145.829 275.756 145.824 277.609L131.874 277.595C131.545 277.351 131.684 277.513 131.588 276.994C135.757 272.11 140.83 266.855 145.351 262.244Z" fill="#DE1720"/>
  <path d="M225.367 210.148L225.878 210.458C226.508 211.77 226.359 271.567 226.15 277.72L225.393 277.424C224.975 276.387 225.014 214.127 225.367 210.148Z" fill="#FFFFFF"/>
</svg>