<svg width="64" height="64" viewBox="40 200 180 88" xmlns="http://www.w3.org/2000/svg">
<path d="M57.7218 210.161C58.1864 210.139 59.8363 210.087 60.1128 210.386C69.1004 220.106 77.8177 230.384 86.4382 240.423C94.9003 231.603 104.913 219.61 113.265 210.231C116.937 210.108 121.223 210.208 124.942 210.218L124.979 277.585L110.576 277.592C110.893 267.216 110.635 255.558 110.637 245.083L110.605 235.79C102.449 244.788 94.5456 254.2 86.388 263.273C78.992 255.647 69.6514 243.937 62.3044 235.668L62.3535 277.589L47.9912 277.604L48.04 210.179C51.2673 210.194 54.4946 210.188 57.7218 210.161Z" fill="#1A1A1A"/>
<path d="M131.927 210.153L153.328 210.159C166.786 210.132 177.465 209.359 187.966 219.21C202.808 233.132 201.649 260.589 184.496 272.131C178.314 276.291 172.506 277.374 165.251 277.575L150.408 277.577L150.399 262.605C155.292 262.603 160.339 262.573 165.227 262.647C181.848 262.896 189.384 241.726 178.087 230.492C175.932 228.35 173.24 226.825 170.293 226.076C165.657 224.892 157.638 225.251 152.661 225.264L131.518 225.285C131.497 223.124 131.109 211.199 131.927 210.153Z" fill="#1A1A1A"/>
<path d="M131.438 233.385L145.778 233.37L145.785 253.839C143.482 256.15 141.163 258.666 138.906 261.039C136.454 263.667 133.964 266.259 131.436 268.814C131.311 257.065 131.424 245.147 131.438 233.385Z" fill="#1A1A1A"/>
<path d="M145.351 262.244C146.162 263 145.829 275.756 145.824 277.609L131.874 277.595C131.545 277.351 131.684 277.513 131.588 276.994C135.757 272.11 140.83 266.855 145.351 262.244Z" fill="#DE1720"/>
<path d="M225.367 210.148L225.878 210.458C226.508 211.77 226.359 271.567 226.15 277.72L225.393 277.424C224.975 276.387 225.014 214.127 225.367 210.148Z" fill="#1A1A1A"/>
</svg>
